<?xml version="1.0" encoding="utf-8"?>
<!-- Generator: Adobe Illustrator 15.1.0, SVG Export Plug-In . SVG Version: 6.00 Build 0)  -->
<!DOCTYPE svg PUBLIC "-//W3C//DTD SVG 1.1//EN" "http://www.w3.org/Graphics/SVG/1.1/DTD/svg11.dtd">
<svg version="1.1" id="Layer_1" xmlns="http://www.w3.org/2000/svg" xmlns:xlink="http://www.w3.org/1999/xlink" x="0px" y="0px"
	 width="325px" height="260px" viewBox="0 0 325 260" enable-background="new 0 0 325 260" xml:space="preserve">
<g>
	<g>
		<path fill="#047857" d="M128.191,125.088c-1.914-1.029-4.078-1.545-6.491-1.545c-2.385,0-4.534,0.516-6.447,1.545
			c-1.914,1.031-3.408,2.459-4.482,4.284c-1.075,1.825-1.612,3.901-1.612,6.227s0.537,4.408,1.612,6.248
			c1.074,1.84,2.568,3.275,4.482,4.306c1.914,1.03,4.063,1.546,6.447,1.546c2.414,0,4.577-0.516,6.491-1.546
			c1.914-1.03,3.407-2.466,4.482-4.306c1.074-1.84,1.612-3.923,1.612-6.248s-0.538-4.401-1.612-6.227
			C131.598,127.547,130.104,126.119,128.191,125.088z M126.734,140.941c-1.325,1.354-3.003,2.031-5.034,2.031
			s-3.703-0.677-5.012-2.031c-1.31-1.354-1.965-3.135-1.965-5.343s0.655-3.989,1.965-5.344c1.31-1.354,2.981-2.031,5.012-2.031
			s3.709,0.678,5.034,2.031c1.325,1.354,1.987,3.136,1.987,5.344S128.059,139.588,126.734,140.941z"/>
		<path fill="#047857" d="M168.066,123.543c-1.855,0-3.548,0.347-5.078,1.037c-1.531,0.692-2.782,1.656-3.754,2.893
			c-0.795-1.295-1.876-2.273-3.246-2.937c-1.369-0.662-2.937-0.993-4.703-0.993c-1.62,0-3.091,0.28-4.416,0.839
			c-1.325,0.56-2.429,1.369-3.312,2.429v-3.003h-5.255v23.581h5.52v-11.967c0-2.297,0.552-4.048,1.656-5.255
			s2.598-1.811,4.482-1.811c1.707,0,3.018,0.522,3.93,1.567c0.912,1.045,1.369,2.599,1.369,4.659v12.806h5.52v-11.967
			c0-2.267,0.559-4.011,1.678-5.233c1.119-1.221,2.605-1.832,4.46-1.832c1.707,0,3.018,0.522,3.93,1.567s1.369,2.599,1.369,4.659
			v12.806h5.52v-13.513c0-3.444-0.869-6.027-2.605-7.75C173.394,124.404,171.039,123.543,168.066,123.543z"/>
		<path fill="#047857" d="M213.572,125.066c-1.81-1.016-3.864-1.523-6.16-1.523c-2.326,0-4.416,0.516-6.271,1.545
			c-1.854,1.031-3.305,2.467-4.35,4.306c-1.045,1.841-1.567,3.908-1.567,6.205c0,2.325,0.537,4.408,1.612,6.248
			c1.074,1.84,2.598,3.275,4.57,4.306c1.972,1.03,4.254,1.546,6.845,1.546c2.031,0,3.856-0.324,5.476-0.972
			c1.619-0.647,2.958-1.604,4.019-2.871l-2.958-3.399c-1.678,1.707-3.813,2.561-6.403,2.561c-2.031,0-3.731-0.508-5.101-1.523
			c-1.369-1.016-2.215-2.392-2.539-4.129h18.503c0.059-0.706,0.088-1.251,0.088-1.634c0-2.413-0.508-4.541-1.524-6.381
			C216.795,127.51,215.382,126.082,213.572,125.066z M200.7,133.699c0.265-1.736,1.008-3.128,2.23-4.173
			c1.221-1.045,2.716-1.567,4.482-1.567c1.795,0,3.297,0.529,4.504,1.59c1.207,1.06,1.928,2.443,2.164,4.15H200.7z"/>
		<path fill="#047857" d="M248.17,135.73c0-2.413-0.508-4.541-1.524-6.381c-1.016-1.84-2.429-3.268-4.239-4.283
			c-1.81-1.016-3.864-1.523-6.16-1.523c-2.326,0-4.416,0.516-6.271,1.545c-1.854,1.031-3.305,2.467-4.35,4.306
			c-1.045,1.841-1.567,3.908-1.567,6.205c0,2.325,0.537,4.408,1.612,6.248c1.074,1.84,2.598,3.275,4.57,4.306
			c1.972,1.03,4.254,1.546,6.845,1.546c2.031,0,3.856-0.324,5.476-0.972c1.619-0.647,2.958-1.604,4.019-2.871l-2.958-3.399
			c-1.678,1.707-3.813,2.561-6.403,2.561c-2.031,0-3.731-0.508-5.1-1.523c-1.369-1.016-2.216-2.392-2.54-4.129h18.503
			C248.141,136.658,248.17,136.113,248.17,135.73z M229.535,133.699c0.265-1.736,1.008-3.128,2.23-4.173
			c1.221-1.045,2.716-1.567,4.482-1.567c1.795,0,3.297,0.529,4.504,1.59c1.207,1.06,1.928,2.443,2.164,4.15H229.535z"/>
		<path fill="#047857" d="M91.451,122.771v-0.25v-10.225h-5.52v10.853v0.268c-2.526,1.026-8.769,4.348-9.034,12.204
			c0,0-1.25,12.225,7,12.083c2.206-0.038,4.495-0.156,6.044-1.979c1.289-1.518,1.51-3.427,1.51-5.33v-10.225v-2.566
			c9.488,0.084,9.01,9,9.01,9v11.096h5.52v-12.678C105.981,135.021,106.543,122.771,91.451,122.771z M85.931,140.394
			c0,0.791-0.031,2.128-0.865,2.561c-0.289,0.149-0.614,0.174-0.932,0.113c-0.552-0.107-1.082-0.475-1.357-0.898
			c-0.472-0.725-0.742-1.478-0.886-2.331c-0.191-1.137-0.22-2.338-0.098-3.485c0.391-4.254,2.738-6.244,4.138-7.064V140.394z"/>
		<rect x="183.566" y="123.543" fill="#047857" width="5.829" height="23.846"/>
		<circle fill="#047857" cx="186.48" cy="116.813" r="3.084"/>
	</g>
</g>
</svg>
